<svg xmlns="http://www.w3.org/2000/svg" xmlns:xlink="http://www.w3.org/1999/xlink" height="195" viewBox="0 0 108 195" width="108"><svg height="23" viewBox="0 0 100 23" width="100" x="4" y="4"><g fill="#D67C1C" fill-rule="evenodd"><path d="M20.195 17.607c1.077-3.454 2.097-5.757 3.201-9.071.387-1.151.718-1.797.607-2.443-.193-1.067-.883-1.348-1.572-.45-.11.169-.221.31-.304.478-.414.702-.773 1.432-1.242 2.275-1.435 2.527-2.51 5.841-3.256 6.964-.966 1.573-2.318 1.264-2.732-.309-1.103.815-2.428-.056-2.373-1.488.028-1.264.359-2.893.524-4.184.221-1.601.663-5.673.635-7.864a3.792 3.792 0 0 0-.11-.674C13.324.083 12.579 0 11.945.448c-.359.253-.663.786-.828 1.488-.276 1.011-.359 2.107-.497 3.202-.083.73-1.27 7.246-1.545 7.779-.856 1.77-3.863-1.207-6.099-1.881-2.455-.703-4 .59-2.18 1.713 1.215.758 5.271 3.988 6.264 5.083.249.253.304.28.552.505.36.365.58.702.966 1.04 2.263 2.106 6.236 3.089 9.244 1.516.607-.337.745-.478 1.187-.927.717-.758.883-1.404 1.186-2.359m37.584 4.044h3.256l1.352-6.375c1.793-.225 1.849 1.04 2.125 2.415l.717 3.96h3.311l-.8-4.044c-.193-.983-.635-1.797-.993-2.19-.221-.225-.414-.337-.662-.534.524-.337.938-.477 1.352-.73.662-.393 1.297-.955 1.931-2.078.773-1.377 1.16-3.483.387-5.027-.773-1.601-2.043-1.91-4.305-1.91-2.07 0-4.112-.028-6.181 0l-.497 2.612h1.766l-2.76 13.901zm5.16-8.987l.993-4.886c1.435-.056 3.808-.421 2.76 2.78-.746 2.275-2.153 2.134-3.753 2.106zm25.497 8.987h2.897l1.021-4.634c1.242-.112 1.352.562 1.628 1.91l.524 2.724 3.008-.028-.414-2.078c-.441-1.966-.276-2.331-1.407-3.567l3.422-5.055-3.09.028c-.773 1.067-1.463 2.387-2.153 3.483h-.966c-.055-.927 1.6-7.47 1.849-9.296h-4.801l-.47 2.612h1.739c-.276 2.218-2.76 12.778-2.787 13.901m-54.83-4.297h-2.704l-.359 1.657h-2.18l2.842-13.873-5.215.056-.607 2.556h1.904l-2.897 13.9 8.333-.028"/><path d="M71.576 21.904c.248.112.552.168.938.224 2.677.281 4.032-.734 4.86-1.83.745-.983.99-1.736 1.294-2.944.441-1.629.69-3.51-.332-4.914-1.076-1.489-3.256-1.966-5.325-1.096-1.628.702-2.815 2.107-3.422 4.016-.304.983-.497 2.135-.386 3.23.138 1.573.883 2.752 2.373 3.314m.91-3.539c-.193-.674-.082-1.432.166-2.415.276-1.067 1.049-2.836 2.345-2.387 1.021.309 1.077 3.398 0 4.999-.827 1.264-2.097 1.46-2.51-.197M35.29 21.033c1.744 2.137 5.16.674 6.677.14l-.497-2.246c-1.352.477-3.338 1.488-3.863-.59 2.235.197 4.195-.533 5.298-2.5 2.76-4.942-4.111-6.711-7.064-2.751-1.02 1.376-1.545 2.836-1.573 4.746 0 0-.146 1.772 1.021 3.201m2.401-4.802c.166-1.151.718-2.443 1.738-2.668.828-.168 1.139.429.966 1.151-.075.314-.193.618-.469.9-.497.505-1.297.645-2.235.617m12.831-.731c.449 1.776 2.98 2.023 3.284 2.837.58 1.489-2.125 1.685-3.67.421l-1.049 2.247c.8 1.04 3.284 1.32 4.857.983 1.904-.393 2.98-1.966 3.063-3.875.055-.871-.138-1.32-.883-2.022-.662-.59-1.435-.759-2.042-1.18-.331-.225-.441-.28-.414-.702.055-.758.662-.73 1.573-.702l-.193 1.151 2.125-.028 1.38-4.325-2.595.028-.138.646c-1.296-.084-2.81-.126-3.835.702 0 0-2.01 1.651-1.463 3.82m30.409 5.785c.276.253.69.506 1.297.674.69.225 1.49.253 2.263.14.497-.056.855-.168 1.186-.252.414-.113.745-.253 1.16-.422.165-.084.358-.14.551-.252l-.497-2.219c-.938.309-4.304 2.05-3.945-1.91.22-2.274.91-3.791 3.394-3.482l-.193 1.095 2.097-.028 1.407-4.325h-2.566l-.194.759c-2.952-.31-4.552.533-5.794 2.246-1.021 1.376-1.49 3.342-1.352 5.336.082.983.414 1.966 1.186 2.64"/><path d="M43.816 21.651h2.842l1.683-8.172 1.6.028.801-2.528h-1.849l.635-3.23h-2.539l-.938 3.23h-1.518l-.496 2.5h1.297zm-28.808-7.863c.551-1.208.938-2.977 1.076-4.072.138-1.068-.166-1.517-1.27-1.685-.303-.057-.607-.028-.883.196-.413.309-.358.87-.524 1.798-.276 1.91-.855 3.96-.055 4.633.855.702 1.352-.168 1.656-.87m2.318 1.123c.883-1.488 1.986-4.1 1.434-4.97-.469-.703-1.766-1.068-2.152.055-.304.871-.58 2.219-.8 2.977-.248.815-.635 1.91-.304 2.472.58 1.01 1.435.084 1.822-.534M50.66 9.463h2.069l1.49-4.325h-2.677z"/></g></svg><svg height="26" viewBox="0 0 25 26" width="25" x="4" y="31"><path d="M24.204 20.161l-3.748-3.793a1.978 1.978 0 0 0-1.417-.571 2.14 2.14 0 0 0-1.513.623l-1.822 1.843-.294-.164a18.604 18.604 0 0 1-4.51-3.3 18.876 18.876 0 0 1-3.276-4.582l-.15-.279L9.3 8.095a2.127 2.127 0 0 0 .049-2.972L5.593 1.334A1.97 1.97 0 0 0 4.175.761a2.137 2.137 0 0 0-1.518.625l-.92.94a.393.393 0 0 0-.057.072l-.074.125a6.405 6.405 0 0 0-1.27 3.168c-.5 4.195 1.386 8.023 6.507 13.203 6.062 6.132 11.17 6.607 12.59 6.607.156.002.311-.004.466-.018a6.447 6.447 0 0 0 1.59-.407 6.134 6.134 0 0 0 1.56-.897l.211-.167.031-.029.864-.857a2.12 2.12 0 0 0 .049-2.965zm-.59 2.412l-.846.84-.193.153a5.37 5.37 0 0 1-1.364.783 5.679 5.679 0 0 1-1.397.357c-.012 0-.144.015-.381.015-1.345 0-6.186-.459-12.044-6.377C2.456 13.351.634 9.714 1.103 5.782c.057-.482.173-.955.345-1.408.191-.498.452-.966.774-1.39l.025-.036.073-.101.889-.905c.257-.257.605-.4.966-.4.324-.007.638.117.871.345l3.748 3.788c.49.53.469 1.361-.05 1.865L6.702 9.597a.394.394 0 0 0-.064.469l.299.521a19.549 19.549 0 0 0 3.412 4.774 19.282 19.282 0 0 0 4.683 3.421l.549.308c.153.08.34.048.459-.079l2.028-2.051c.26-.256.607-.397.97-.394.326-.003.64.126.873.36l3.745 3.79c.235.24.365.565.358.903-.006.359-.15.701-.402.954h.002zM14.07 3.355c4.481.006 8.112 3.68 8.118 8.213 0 .216.173.39.387.39a.389.389 0 0 0 .386-.39c-.005-4.966-3.983-8.99-8.891-8.995a.389.389 0 0 0-.387.39c0 .217.173.392.387.392zm-.774 3.65c2.917.003 5.281 2.394 5.284 5.345 0 .216.173.391.386.391a.389.389 0 0 0 .387-.391c-.004-3.382-2.713-6.123-6.057-6.127a.389.389 0 0 0-.386.391c0 .216.173.391.386.391z" fill-rule="evenodd"/></svg><svg height="25" viewBox="0 0 25 25" width="25" x="4" y="61"><g fill-rule="evenodd"><path d="M12.533.433c3.338 0 6.36 1.355 8.548 3.546a12.067 12.067 0 0 1 3.541 8.554 12.07 12.07 0 0 1-3.54 8.555 12.046 12.046 0 0 1-8.549 3.546c-3.337 0-6.36-1.355-8.548-3.546a12.067 12.067 0 0 1-3.54-8.555c0-3.34 1.353-6.365 3.54-8.554A12.046 12.046 0 0 1 12.533.433zm8.014 4.077a11.292 11.292 0 0 0-8.014-3.321c-3.13 0-5.964 1.269-8.014 3.32A11.316 11.316 0 0 0 1.2 12.534a11.32 11.32 0 0 0 3.32 8.024 11.292 11.292 0 0 0 8.013 3.321c3.13 0 5.964-1.27 8.014-3.321a11.316 11.316 0 0 0 3.32-8.024c0-3.134-1.269-5.97-3.32-8.023z"/><path d="M21.878 20.208a12.138 12.138 0 0 1-4.169 3.262 12.028 12.028 0 0 1-5.176 1.164c-1.85 0-3.605-.418-5.175-1.164a12.138 12.138 0 0 1-4.19-3.287v.001a.378.378 0 0 1 .185-.601 24.294 24.294 0 0 1 9.18-1.794 24.298 24.298 0 0 1 9.215 1.808l-.142.348.143-.35a.378.378 0 0 1 .129.613zm-4.49 2.58a11.37 11.37 0 0 0 3.59-2.687 23.553 23.553 0 0 0-8.445-1.557 23.654 23.654 0 0 0-8.444 1.557 11.37 11.37 0 0 0 3.59 2.688 11.28 11.28 0 0 0 4.854 1.09c1.738 0 3.384-.392 4.854-1.09zm3.59-17.822a11.37 11.37 0 0 0-3.59-2.688 11.28 11.28 0 0 0-4.855-1.09c-1.738 0-3.383.391-4.854 1.09a11.37 11.37 0 0 0-3.59 2.688 23.553 23.553 0 0 0 8.444 1.556 23.654 23.654 0 0 0 8.445-1.556zm-3.269-3.37c1.62.77 3.042 1.89 4.169 3.263a.376.376 0 0 1-.129.612l-.143-.35.142.349a24.297 24.297 0 0 1-9.215 1.808 24.294 24.294 0 0 1-9.18-1.794.376.376 0 0 1-.185-.601 12.139 12.139 0 0 1 4.19-3.287A12.028 12.028 0 0 1 12.533.433c1.851 0 3.606.417 5.176 1.163z"/><path d="M12.533.433c1.856 0 3.515 1.39 4.697 3.636 1.144 2.173 1.852 5.166 1.852 8.464s-.708 6.292-1.852 8.465c-1.182 2.246-2.841 3.636-4.697 3.636-1.855 0-3.514-1.39-4.697-3.636-1.144-2.173-1.851-5.167-1.851-8.465s.707-6.291 1.851-8.464C9.02 1.822 10.678.433 12.533.433zm4.03 3.987c-1.05-1.997-2.477-3.231-4.03-3.231-1.552 0-2.979 1.234-4.03 3.23C7.414 6.49 6.74 9.358 6.74 12.534s.674 6.044 1.763 8.114c1.051 1.996 2.478 3.231 4.03 3.231 1.553 0 2.98-1.235 4.03-3.231 1.09-2.07 1.763-4.938 1.763-8.114 0-3.176-.673-6.044-1.763-8.113z"/><path d="M.822 12.156a.378.378 0 0 0 0 .755h23.422a.378.378 0 0 0 0-.755H.822z"/></g></svg><svg height="25" viewBox="0 0 17 25" width="17" x="4" y="90"><g fill-rule="evenodd"><path d="M16.368 6.682C15.546 2.86 12.167.086 8.333.086 4.5.086 1.12 2.86.298 6.682c-.303 1.408-.32 2.972-.05 4.779.783 5.246 3.626 10.128 7.801 13.394l.113.088h.343l.113-.088c4.176-3.266 7.019-8.148 7.8-13.394.27-1.808.254-3.371-.05-4.78zm-.774 4.656c-.737 4.94-3.377 9.545-7.26 12.678-3.884-3.133-6.524-7.737-7.261-12.678-.255-1.706-.242-3.172.04-4.48C1.853 3.417 4.89.92 8.333.92c3.444 0 6.48 2.497 7.22 5.937.282 1.308.295 2.774.04 4.48z"/><path d="M8.315 4.595a3.845 3.845 0 0 0-3.839 3.842 3.845 3.845 0 0 0 3.839 3.843 3.845 3.845 0 0 0 3.838-3.843 3.845 3.845 0 0 0-3.838-3.842zm0 6.851A3.01 3.01 0 0 1 5.31 8.438a3.01 3.01 0 0 1 3.005-3.009 3.01 3.01 0 0 1 3.005 3.009 3.01 3.01 0 0 1-3.005 3.008z"/></g></svg><svg height="17" viewBox="0 0 25 17" width="25" x="4" y="119"><path fill-rule="evenodd" d="M22.517.435H2.483A2.479 2.479 0 0 0 0 2.903v11.194a2.479 2.479 0 0 0 2.483 2.468h20.034A2.479 2.479 0 0 0 25 14.097V2.903A2.479 2.479 0 0 0 22.517.435zm-5.586 7.493l7.03-5.722c.102.211.163.447.163.697v11.193c0 .238-.054.463-.148.666L16.93 7.928zm5.586-6.622c.316 0 .61.092.859.25L12.5 10.409 1.624 1.556a1.6 1.6 0 0 1 .859-.25h20.034zM1.024 14.762a1.578 1.578 0 0 1-.148-.666V2.903c0-.25.06-.486.164-.697l7.03 5.722-7.046 6.834zm1.459.932c-.328 0-.634-.1-.888-.268l7.157-6.942 3.748 3.05 3.748-3.05 7.157 6.942a1.6 1.6 0 0 1-.888.268H2.483z"/></svg><svg height="13" viewBox="0 0 12 13" width="12" x="4" y="140"><path fill="#FFF" fill-rule="evenodd" d="M6.284 6.37l-4.612 6.572-1.5-1.21L2.94 7.58l1.413-1.182L2.94 5.361 0 1.297 1.499.057 6.284 6.37zm5.246 0L6.918 13l-1.557-1.24 2.825-4.18L9.57 6.4 8.186 5.36 5.188 1.268 6.716 0l4.814 6.37z"/></svg><svg height="12" viewBox="0 0 7 12" width="7" x="4" y="157"><title>Affordance</title><path d="M7 4H0l3.5-4L7 4zM0 7h6.833l-3.417 4.37L0 7z" fill="#494949" fill-rule="evenodd"/></svg><svg height="7" viewBox="0 0 8 7" width="8" x="4" y="173"><style>.st0{fill:#474747}</style><path id="Up_1_" class="st0" d="M3 3V0h2v3l2-2 1 2-4 4-4-4 1-2 2 2z"/></svg><svg height="7" viewBox="0 0 8 7" width="8" x="4" y="184"><style>.st0{fill:#474747}</style><path id="Up_1_" class="st0" d="M5 4v3H3V4L1 6 0 4l4-4 4 4-1 2-2-2z"/></svg></svg>