<svg xmlns="http://www.w3.org/2000/svg" width="25" height="17" viewBox="0 0 25 17"><path fill-rule="evenodd" d="M22.517.435H2.483A2.479 2.479 0 0 0 0 2.903v11.194a2.479 2.479 0 0 0 2.483 2.468h20.034A2.479 2.479 0 0 0 25 14.097V2.903A2.479 2.479 0 0 0 22.517.435zm-5.586 7.493l7.03-5.722c.102.211.163.447.163.697v11.193c0 .238-.054.463-.148.666L16.93 7.928zm5.586-6.622c.316 0 .61.092.859.25L12.5 10.409 1.624 1.556a1.6 1.6 0 0 1 .859-.25h20.034zM1.024 14.762a1.578 1.578 0 0 1-.148-.666V2.903c0-.25.06-.486.164-.697l7.03 5.722-7.046 6.834zm1.459.932c-.328 0-.634-.1-.888-.268l7.157-6.942 3.748 3.05 3.748-3.05 7.157 6.942a1.6 1.6 0 0 1-.888.268H2.483z"/></svg>