<svg xmlns="http://www.w3.org/2000/svg" width="17" height="25" viewBox="0 0 17 25"><g fill-rule="evenodd"><path d="M16.368 6.682C15.546 2.86 12.167.086 8.333.086 4.5.086 1.12 2.86.298 6.682c-.303 1.408-.32 2.972-.05 4.779.783 5.246 3.626 10.128 7.801 13.394l.113.088h.343l.113-.088c4.176-3.266 7.019-8.148 7.8-13.394.27-1.808.254-3.371-.05-4.78zm-.774 4.656c-.737 4.94-3.377 9.545-7.26 12.678-3.884-3.133-6.524-7.737-7.261-12.678-.255-1.706-.242-3.172.04-4.48C1.853 3.417 4.89.92 8.333.92c3.444 0 6.48 2.497 7.22 5.937.282 1.308.295 2.774.04 4.48z"/><path d="M8.315 4.595a3.845 3.845 0 0 0-3.839 3.842 3.845 3.845 0 0 0 3.839 3.843 3.845 3.845 0 0 0 3.838-3.843 3.845 3.845 0 0 0-3.838-3.842zm0 6.851A3.01 3.01 0 0 1 5.31 8.438a3.01 3.01 0 0 1 3.005-3.009 3.01 3.01 0 0 1 3.005 3.009 3.01 3.01 0 0 1-3.005 3.008z"/></g></svg>