<svg xmlns="http://www.w3.org/2000/svg" width="25" height="26" viewBox="0 0 25 26"><path d="M24.204 20.161l-3.748-3.793a1.978 1.978 0 0 0-1.417-.571 2.14 2.14 0 0 0-1.513.623l-1.822 1.843-.294-.164a18.604 18.604 0 0 1-4.51-3.3 18.876 18.876 0 0 1-3.276-4.582l-.15-.279L9.3 8.095a2.127 2.127 0 0 0 .049-2.972L5.593 1.334A1.97 1.97 0 0 0 4.175.761a2.137 2.137 0 0 0-1.518.625l-.92.94a.393.393 0 0 0-.057.072l-.074.125a6.405 6.405 0 0 0-1.27 3.168c-.5 4.195 1.386 8.023 6.507 13.203 6.062 6.132 11.17 6.607 12.59 6.607.156.002.311-.004.466-.018a6.447 6.447 0 0 0 1.59-.407 6.134 6.134 0 0 0 1.56-.897l.211-.167.031-.029.864-.857a2.12 2.12 0 0 0 .049-2.965zm-.59 2.412l-.846.84-.193.153a5.37 5.37 0 0 1-1.364.783 5.679 5.679 0 0 1-1.397.357c-.012 0-.144.015-.381.015-1.345 0-6.186-.459-12.044-6.377C2.456 13.351.634 9.714 1.103 5.782c.057-.482.173-.955.345-1.408.191-.498.452-.966.774-1.39l.025-.036.073-.101.889-.905c.257-.257.605-.4.966-.4.324-.007.638.117.871.345l3.748 3.788c.49.53.469 1.361-.05 1.865L6.702 9.597a.394.394 0 0 0-.064.469l.299.521a19.549 19.549 0 0 0 3.412 4.774 19.282 19.282 0 0 0 4.683 3.421l.549.308c.153.08.34.048.459-.079l2.028-2.051c.26-.256.607-.397.97-.394.326-.003.64.126.873.36l3.745 3.79c.235.24.365.565.358.903-.006.359-.15.701-.402.954h.002zM14.07 3.355c4.481.006 8.112 3.68 8.118 8.213 0 .216.173.39.387.39a.389.389 0 0 0 .386-.39c-.005-4.966-3.983-8.99-8.891-8.995a.389.389 0 0 0-.387.39c0 .217.173.392.387.392zm-.774 3.65c2.917.003 5.281 2.394 5.284 5.345 0 .216.173.391.386.391a.389.389 0 0 0 .387-.391c-.004-3.382-2.713-6.123-6.057-6.127a.389.389 0 0 0-.386.391c0 .216.173.391.386.391z" fill-rule="evenodd"/></svg>