<svg xmlns="http://www.w3.org/2000/svg" width="25" height="25" viewBox="0 0 25 25"><g fill-rule="evenodd"><path d="M12.533.433c3.338 0 6.36 1.355 8.548 3.546a12.067 12.067 0 0 1 3.541 8.554 12.07 12.07 0 0 1-3.54 8.555 12.046 12.046 0 0 1-8.549 3.546c-3.337 0-6.36-1.355-8.548-3.546a12.067 12.067 0 0 1-3.54-8.555c0-3.34 1.353-6.365 3.54-8.554A12.046 12.046 0 0 1 12.533.433zm8.014 4.077a11.292 11.292 0 0 0-8.014-3.321c-3.13 0-5.964 1.269-8.014 3.32A11.316 11.316 0 0 0 1.2 12.534a11.32 11.32 0 0 0 3.32 8.024 11.292 11.292 0 0 0 8.013 3.321c3.13 0 5.964-1.27 8.014-3.321a11.316 11.316 0 0 0 3.32-8.024c0-3.134-1.269-5.97-3.32-8.023z"/><path d="M21.878 20.208a12.138 12.138 0 0 1-4.169 3.262 12.028 12.028 0 0 1-5.176 1.164c-1.85 0-3.605-.418-5.175-1.164a12.138 12.138 0 0 1-4.19-3.287v.001a.378.378 0 0 1 .185-.601 24.294 24.294 0 0 1 9.18-1.794 24.298 24.298 0 0 1 9.215 1.808l-.142.348.143-.35a.378.378 0 0 1 .129.613zm-4.49 2.58a11.37 11.37 0 0 0 3.59-2.687 23.553 23.553 0 0 0-8.445-1.557 23.654 23.654 0 0 0-8.444 1.557 11.37 11.37 0 0 0 3.59 2.688 11.28 11.28 0 0 0 4.854 1.09c1.738 0 3.384-.392 4.854-1.09zm3.59-17.822a11.37 11.37 0 0 0-3.59-2.688 11.28 11.28 0 0 0-4.855-1.09c-1.738 0-3.383.391-4.854 1.09a11.37 11.37 0 0 0-3.59 2.688 23.553 23.553 0 0 0 8.444 1.556 23.654 23.654 0 0 0 8.445-1.556zm-3.269-3.37c1.62.77 3.042 1.89 4.169 3.263a.376.376 0 0 1-.129.612l-.143-.35.142.349a24.297 24.297 0 0 1-9.215 1.808 24.294 24.294 0 0 1-9.18-1.794.376.376 0 0 1-.185-.601 12.139 12.139 0 0 1 4.19-3.287A12.028 12.028 0 0 1 12.533.433c1.851 0 3.606.417 5.176 1.163z"/><path d="M12.533.433c1.856 0 3.515 1.39 4.697 3.636 1.144 2.173 1.852 5.166 1.852 8.464s-.708 6.292-1.852 8.465c-1.182 2.246-2.841 3.636-4.697 3.636-1.855 0-3.514-1.39-4.697-3.636-1.144-2.173-1.851-5.167-1.851-8.465s.707-6.291 1.851-8.464C9.02 1.822 10.678.433 12.533.433zm4.03 3.987c-1.05-1.997-2.477-3.231-4.03-3.231-1.552 0-2.979 1.234-4.03 3.23C7.414 6.49 6.74 9.358 6.74 12.534s.674 6.044 1.763 8.114c1.051 1.996 2.478 3.231 4.03 3.231 1.553 0 2.98-1.235 4.03-3.231 1.09-2.07 1.763-4.938 1.763-8.114 0-3.176-.673-6.044-1.763-8.113z"/><path d="M.822 12.156a.378.378 0 0 0 0 .755h23.422a.378.378 0 0 0 0-.755H.822z"/></g></svg>